<svg width="24" height="24" fill="none" xmlns="http://www.w3.org/2000/svg"><g clip-path="url(#clip0_8580_34695)"><path d="M1 3.909l.307-.128c1.358-.568 3.31-1.184 5.225-1.376L1 3.909zm0 0v.333m0-.333v.333m0 0v15.61l.678-.258c1.347-.515 3.089-1.012 4.803-1.187 1.599-.16 3.252-.042 4.522.677l.747.424V3.83M1 4.243l10.75-.411m0 0l-.137-.145m.137.145l-.137-.145m0 0C10.466 2.478 8.567 2.2 6.532 2.405l5.08 1.281zm.637.145l.137-.145c1.147-1.208 3.046-1.486 5.081-1.281L12.25 3.83zm0 0v.2m0-.2v.2m0 0V19.51l.747-.425c1.27-.72 2.921-.837 4.522-.675h0c1.715.171 3.454.67 4.803 1.185l.678.258V3.91m-10.75.121L23 3.91m0 0l-.307-.128M23 3.91l-.307-.128m0 0c-1.358-.568-3.31-1.184-5.225-1.376l5.225 1.376zM12 3.334l-.326-.28C10.357 1.92 8.392 1.716 6.481 1.907 4.278 2.13 2.039 2.89.647 3.523h0A.25.25 0 00.5 3.75s0 0 0 0v16.5s0 0 0 0c0 .042.01.083.03.12l-.438.239.439-.24a.25.25 0 00.322.108h.001c1.357-.616 3.542-1.357 5.676-1.572h0c2.153-.217 4.158.106 5.275 1.5a.25.25 0 00.39 0c1.117-1.394 3.122-1.717 5.273-1.5l-.05.497.05-.497c2.136.215 4.322.956 5.678 1.572h0a.25.25 0 00.354-.227L12 3.334zm0 0l.326-.28m-.326.28l.326-.28m0 0c1.318-1.133 3.282-1.34 5.193-1.147l-5.193 1.147zm11.235.013l-.207.456c-1.393-.634-3.632-1.393-5.835-1.616l6.042 1.16zm0 0l-.207.456a.25.25 0 01.146.227s0 0 0 0m.06-.683l-.06.683m0 0v16.5-16.5z" fill="#FBFBFB" stroke="#FBFBFB"/></g><defs><clipPath id="clip0_8580_34695"><path fill="#fff" d="M0 0h24v24H0z"/></clipPath></defs></svg>