<svg width="24" height="24" fill="none" xmlns="http://www.w3.org/2000/svg"><path fill-rule="evenodd" clip-rule="evenodd" d="M0 3.75a.75.75 0 01.44-.683c1.427-.65 3.72-1.428 5.99-1.657 1.95-.195 4.093-.006 5.57 1.264 1.477-1.27 3.62-1.46 5.57-1.264 2.27.23 4.563 1.008 5.99 1.657a.75.75 0 01.44.683v16.5a.75.75 0 01-1.06.682c-1.322-.6-3.455-1.321-5.522-1.53-2.112-.213-3.883.13-4.833 1.316a.75.75 0 01-1.17 0c-.95-1.185-2.721-1.529-4.834-1.316-2.066.209-4.197.93-5.52 1.53A.75.75 0 010 20.25V3.75zm6.43 14.16c1.321-.133 2.731-.088 3.963.35.297.106.584.235.857.39V4.03c-.981-1.033-2.673-1.329-4.668-1.128-1.851.186-3.754.785-5.082 1.34v14.884c.27-.103.558-.206.857-.306 1.221-.407 2.652-.765 4.074-.91zm5.559 2.158l.011.013.012-.014-.01-.006-.013.007zM12.75 4.03c.981-1.033 2.673-1.329 4.668-1.128 1.851.186 3.755.785 5.082 1.34v14.884a21.7 21.7 0 00-.857-.306c-1.222-.407-2.652-.766-4.073-.909-1.322-.134-2.732-.09-3.963.349a5.408 5.408 0 00-.857.39V4.03z" fill="#FBFBFB"/></svg>