<svg width="24" height="24" fill="none" xmlns="http://www.w3.org/2000/svg"><g clip-path="url(#clip0_8580_2787)"><path d="M11.609 14.434l5.202-6.627a.625.625 0 01.873 0l.35-.356-.35.357a.625.625 0 01.015.877l-.014.016-.014.017-5.975 7.468a.624.624 0 01-.888.005s0 0 0 0l-3.961-3.963a.625.625 0 01.883-.883l3.132 3.134.399.399.348-.444zm-7.387 5.344A11 11 0 1019.778 4.222 11 11 0 004.222 19.778zm15.91.354A11.5 11.5 0 113.868 3.869a11.5 11.5 0 0116.264 16.263z" fill="#FBFBFB" stroke="#FBFBFB"/></g><defs><clipPath id="clip0_8580_2787"><path fill="#fff" d="M0 0h24v24H0z"/></clipPath></defs></svg>