<svg width="24" height="24" fill="none" xmlns="http://www.w3.org/2000/svg"><path d="M6.541 16.328v.002c0 .132.004.265.01.397l.025.594a6.022 6.022 0 01-.076-.994c0-.852.141-1.493.372-1.94-.232.503-.331 1.168-.331 1.94zm.349 1.975a2.871 2.871 0 01-.251-.676l.019-.014.05.188c.047.177.107.346.182.502zm3.047-3.273l-.017.013-.048-.18a2.933 2.933 0 00-.163-.464c.09.18.168.39.228.631zm.088.905l-.022-.579c.047.287.072.61.072.972 0 .867-.146 1.516-.383 1.963.239-.505.34-1.178.34-1.963 0-.136-.003-.27-.007-.393zM14.095 19h-.041v-5.25h-.483l.14-.092h.384V19zM4.232 1.232A2.5 2.5 0 016 .5h12A2.5 2.5 0 0120.5 3v18a2.5 2.5 0 01-2.5 2.5H6A2.5 2.5 0 013.5 21V3a2.5 2.5 0 01.732-1.768zM18 1H6a2 2 0 00-2 2v18a2 2 0 002 2h12a2 2 0 002-2V3a2 2 0 00-2-2z" fill="#FBFBFB" stroke="#FBFBFB"/></svg>