<svg width="24" height="24" fill="none" xmlns="http://www.w3.org/2000/svg"><g clip-path="url(#clip0_8517_49862)"><path d="M18.95 4.416L18.851 5H22.5a1 1 0 011 1v3a1 1 0 01-1 1H22v11.75a1.75 1.75 0 01-1.75 1.75H3.75A1.75 1.75 0 012 21.75V10h-.5a1 1 0 01-.707-.293l-.353.353.353-.353A1 1 0 01.5 9V6a1 1 0 011-1h3.644l-.093-.58A3.952 3.952 0 015 3.762h0V3.75a3.25 3.25 0 016.5 0h1a3.25 3.25 0 116.5 0v.009c0 .1 0 .365-.05.657zM5.64 4.69l.125.31H11V3.75a2.75 2.75 0 00-1.698-2.54l-.191.461.191-.462A2.75 2.75 0 005.5 3.75c0 .124 0 .467.084.773.015.057.033.112.055.166zM13 4.5V5h5.235l.127-.313a1.32 1.32 0 00.054-.163c.083-.306.084-.65.084-.774a2.75 2.75 0 10-5.5 0v.75zm-11.5 1H1v4h10v-4H1.5zm12 0H13v4h10v-4h-9.5zm8 5V10H13v13h7.25a1.25 1.25 0 001.25-1.25V10.5zM10.5 23h.5V10H2.5v11.75A1.25 1.25 0 003.75 23h6.75z" fill="#FBFBFB" stroke="#FBFBFB"/></g><defs><clipPath id="clip0_8517_49862"><path fill="#fff" d="M0 0h24v24H0z"/></clipPath></defs></svg>