<svg width="24" height="24" fill="none" xmlns="http://www.w3.org/2000/svg"><path d="M7.116 20.5c.042.17.097.337.162.5H1.5c-1 0-1.5-.5-1.5-1.5 0-1.5 1.5-6 7.5-6 .092 0 .184 0 .276.003l-.275.413-.001.001-.055.083m-.33 6.5h.519a3.357 3.357 0 01-.134-1m-.384 1H1.5c-.423 0-.649-.105-.772-.228C.605 20.149.5 19.923.5 19.5c0-.63.332-2.015 1.38-3.237 1.02-1.19 2.739-2.25 5.565-2.263m-.33 6.5A3.857 3.857 0 017 19.496m.5.004c0-1.515.566-3.063 1.635-4.356M7.5 19.5H7v-.004m.5.004l-.5-.009v.005m2.135-4.352c.243-.294.512-.575.806-.839a8.34 8.34 0 00-.585-.137m-.221.976l-.385-.319s0 0 0 0m.385.319l-.385-.319m.606-.657c.145-.141.297-.279.455-.412a8.813 8.813 0 00-1.252-.207 11.005 11.005 0 00-.679-.043v.5m1.476.162c-.217.21-.419.43-.606.657m.606-.657a8.344 8.344 0 00-.843-.12h-.001a10.5 10.5 0 00-.632-.042m0 0A10.427 10.427 0 007.5 14h0-.055m.435.006v1.49l-.226.002M7.444 14l-.337.508m0 0c.088-.003.177-.005.267-.006L7.38 15v0h0l.002.002.414.275a7.787 7.787 0 00-.142.221m-.547-.99l-.143.215c-.067.1-.132.202-.194.304-2.127.16-3.381 1.013-4.13 1.887m4.467-2.406c-2.481.092-3.965 1.051-4.847 2.08M7 19.497c.001-1.638.612-3.295 1.75-4.67m-1.096.672A7.74 7.74 0 006.5 19.504L6.496 20H1v-.5c0-.51.289-1.78 1.26-2.911m5.394-1.09l-.268.002a9.381 9.381 0 00-.32.01A8.24 8.24 0 006 19.5H1.5V19h.07a5 5 0 011.07-2.086m-.38-.325l.38.325m-.38-.325s0 0 0 0l.38.325m7.825 3.081l.034.005h11.997l.029-.003a.89.89 0 00.047-.007l.018-.003.02-.005.011-.003.382-.095L23 19.49c-.004-.51-.293-1.776-1.26-2.902-.928-1.083-2.524-2.088-5.24-2.088-2.717 0-4.313 1.003-5.24 2.088-.966 1.126-1.258 2.39-1.26 2.904l-.002.401.392.089c.024.005.05.01.075.013zM23.5 19.5c0 .288-.07.47-.15.59a.817.817 0 01-.324.275 1.344 1.344 0 01-.526.135h-.003.002-11.998.002-.013l-.019-.002a1.343 1.343 0 01-.498-.133.817.817 0 01-.323-.275c-.08-.12-.15-.302-.15-.59 0-.63.332-2.015 1.38-3.237C11.907 15.065 13.64 14 16.5 14s4.593 1.065 5.62 2.263c1.048 1.222 1.38 2.607 1.38 3.237zm-7-8.5a3.5 3.5 0 100-7 3.5 3.5 0 000 7zm4-3.5a4 4 0 11-8 0 4 4 0 018 0zm-17.75.75a4 4 0 118 0 4 4 0 01-8 0zm4-3.5a3.5 3.5 0 100 7 3.5 3.5 0 000-7z" stroke="#FBFBFB"/></svg>