<svg width="24" height="24" fill="none" xmlns="http://www.w3.org/2000/svg"><path fill-rule="evenodd" clip-rule="evenodd" d="M10.445 20.137a.82.82 0 00.052.005h.036V19.5h11.934a.379.379 0 00.021-.003l.012-.003c0-.077-.01-.184-.033-.313a3.782 3.782 0 00-.136-.538 5.064 5.064 0 00-.971-1.729C20.53 15.945 19.076 15 16.5 15c-2.577 0-4.032.944-4.86 1.914a5.068 5.068 0 00-.972 1.729l-.004.01a3.86 3.86 0 00-.131.524c-.023.13-.033.239-.033.317.01.003.022.005.033.006l-.088.637zM22.5 21h-12S9 21 9 19.5s1.5-6 7.5-6 7.5 4.5 7.5 6-1.5 1.5-1.5 1.5zM6.186 13.577C1.276 14.18 0 18.117 0 19.5c0 1 .5 1.5 1.5 1.5h6.324a3.357 3.357 0 01-.324-1.5c0-1.515.566-3.063 1.635-4.356a8.057 8.057 0 011.269-1.224 8.797 8.797 0 00-1.845-.37 11.181 11.181 0 00-2.373.027zm2.051 1.321c.077-.101.156-.201.237-.3M6.87 15.879c.15-.301.32-.595.509-.877a9.16 9.16 0 00-1.05.07c-1.862.236-2.994 1.03-3.689 1.842a5.07 5.07 0 00-.972 1.729c-.123.38-.168.69-.168.857H6c.01-1.262.31-2.5.87-3.62zm1.367-.98v-.516zm0-.516c.08.006.16.012.24.02h.004l.146.015m-.39-1.92a4.5 4.5 0 10-.738.19H7.5a4.58 4.58 0 00.737-.19zm3.866-4.04A4.501 4.501 0 1020.9 6.542a4.501 4.501 0 00-8.796 1.916zm6.518 1.163a3 3 0 11-4.242-4.243 3 3 0 014.242 4.243zM4.63 6.13a3 3 0 114.24 4.24 3 3 0 01-4.24-4.24z" fill="#FBFBFB"/></svg>