<svg width="24" height="24" fill="none" xmlns="http://www.w3.org/2000/svg"><path d="M19.5 19.994h.502L20 19.492c-.002-.497-.281-1.734-1.394-2.848C17.516 15.555 15.539 14.5 12 14.5c-3.54 0-5.516 1.055-6.606 2.144C4.281 17.758 4.004 18.996 4 19.49l-.004.504H19.5zm-4.672-9.666a4 4 0 11-5.656-5.656 4 4 0 015.656 5.656zm-.353-.353a3.5 3.5 0 10-4.95-4.95 3.5 3.5 0 004.95 4.95zM20.5 19.5c0 .288-.07.47-.15.59a.817.817 0 01-.324.275 1.344 1.344 0 01-.526.135h-.003.002H4.501h.002H4.5c-.005 0-.015 0-.029-.002a1.344 1.344 0 01-.498-.133.817.817 0 01-.323-.275c-.08-.12-.15-.302-.15-.59 0-.622.325-1.993 1.541-3.209C6.242 15.09 8.355 14 12 14c3.645 0 5.758 1.09 6.959 2.291 1.216 1.216 1.541 2.587 1.541 3.209z" stroke="#FBFBFB"/></svg>