<svg width="24" height="24" fill="none" xmlns="http://www.w3.org/2000/svg"><g clip-path="url(#clip0_6667_23782)"><path d="M9.937 7.988h0l5.25 3.75h0a.32.32 0 010 .524h0l-5.25 3.75h0a.321.321 0 01-.508-.262v0-7.5h0a.321.321 0 01.508-.262zm-5.665 11.74A10.929 10.929 0 1019.728 4.272 10.929 10.929 0 004.272 19.728zm15.91.454A11.571 11.571 0 113.818 3.818a11.571 11.571 0 0116.364 16.364z" fill="#FBFBFB" stroke="#FBFBFB" stroke-width=".857"/></g><defs><clipPath id="clip0_6667_23782"><path fill="#fff" d="M0 0h24v24H0z"/></clipPath></defs></svg>