<svg width="24" height="24" fill="none" xmlns="http://www.w3.org/2000/svg"><g clip-path="url(#clip0_8580_34658)"><path d="M18.325.974h0a1.75 1.75 0 011.997.93l.45-.22-.45.22c.117.238.178.5.178.767V5h1.25a1.75 1.75 0 011.75 1.75v13.5A1.75 1.75 0 0121.75 22H2.25A1.75 1.75 0 01.5 20.25V6.75A1.75 1.75 0 012.17 5h.05l.05-.012L18.324.974zM8.222 4.015L8.343 5H20V2.67a1.249 1.249 0 00-.482-.983l-.302.388.302-.388a1.25 1.25 0 00-1.07-.227h0L8.221 4.015zM2.25 5.5A1.25 1.25 0 001 6.75v13.5a1.25 1.25 0 001.25 1.25h19.5A1.25 1.25 0 0023 20.25V6.75a1.25 1.25 0 00-1.25-1.25H2.25z" fill="#FBFBFB" stroke="#FBFBFB"/></g><defs><clipPath id="clip0_8580_34658"><path fill="#fff" d="M0 0h24v24H0z"/></clipPath></defs></svg>