<svg width="24" height="24" viewBox="0 0 24 24" fill="none" xmlns="http://www.w3.org/2000/svg">
<g clip-path="url(#clip0_8580_34695)">
<path d="M1 3.90904L1.30714 3.78064C2.6651 3.2129 4.61779 2.59732 6.53188 2.40496L1 3.90904ZM1 3.90904V4.24194M1 3.90904V4.24194M1 4.24194V19.1264V19.8525L1.67829 19.5936C3.02544 19.0794 4.76653 18.5817 6.48109 18.4074C8.07983 18.2465 9.73348 18.3646 11.0034 19.0844L11.75 19.5076V18.6494V4.03044V3.83093M1 4.24194L11.75 3.83093M11.75 3.83093L11.6126 3.68622M11.75 3.83093L11.6126 3.68622M11.6126 3.68622C10.4658 2.47795 8.5674 2.1999 6.53201 2.40495L11.6126 3.68622ZM12.25 3.83093L12.3874 3.68622C13.5342 2.47795 15.4326 2.1999 17.468 2.40495L12.25 3.83093ZM12.25 3.83093V4.03044M12.25 3.83093V4.03044M12.25 4.03044V18.6494V19.5084L12.9969 19.0842C14.2666 18.3631 15.9185 18.2465 17.519 18.4089L17.5197 18.409C19.2335 18.5803 20.9727 19.0792 22.3219 19.5936L23 19.8522V19.1264V4.24194V3.90904M12.25 4.03044L23 3.90904M23 3.90904L22.6929 3.78064M23 3.90904L22.6929 3.78064M22.6929 3.78064C21.3349 3.2129 19.3822 2.59732 17.4681 2.40496L22.6929 3.78064ZM12 3.33388L11.674 3.05355C10.3565 1.92067 8.39183 1.71634 6.48052 1.90743C4.27775 2.13008 2.03947 2.88901 0.64651 3.52258L0.6465 3.52258C0.602824 3.54245 0.565787 3.57446 0.53981 3.6148C0.513846 3.65512 0.500027 3.70199 0.5 3.74994C0.5 3.74997 0.5 3.75006 0.5 3.75008V20.2498C0.5 20.2498 0.5 20.2499 0.5 20.2499C0.500035 20.2917 0.510541 20.3328 0.530557 20.3695L0.0924246 20.6086L0.530559 20.3695C0.550599 20.4062 0.579532 20.4373 0.614705 20.46C0.649879 20.4826 0.690173 20.496 0.731895 20.4991C0.773612 20.5021 0.815425 20.4946 0.853499 20.4773L0.853987 20.4771C2.21132 19.8615 4.39637 19.1204 6.53028 18.905L6.53036 18.905C8.68263 18.6881 10.6879 19.0112 11.805 20.4051C11.8284 20.4342 11.8581 20.4578 11.8919 20.474C11.9256 20.4902 11.9626 20.4986 12 20.4986C12.0374 20.4986 12.0744 20.4902 12.1081 20.474C12.1419 20.4578 12.1716 20.4342 12.195 20.4051C13.312 19.0112 15.3173 18.688 17.4682 18.905L17.418 19.4024L17.4682 18.905C19.6035 19.1204 21.7901 19.8615 23.1462 20.4772L23.1465 20.4773C23.1846 20.4946 23.2264 20.5021 23.2681 20.4991C23.3098 20.496 23.3501 20.4826 23.3853 20.46C23.4205 20.4373 23.4494 20.4062 23.4694 20.3695C23.4895 20.3328 23.5 20.2917 23.5 20.2499L12 3.33388ZM12 3.33388L12.326 3.05355M12 3.33388L12.326 3.05355M12.326 3.05355C13.6436 1.92055 15.6085 1.71489 17.5192 1.90741L12.326 3.05355ZM23.5605 3.06744L23.3535 3.52258C21.9605 2.889 19.7222 2.13006 17.5194 1.90742L23.5605 3.06744ZM23.5605 3.06744L23.3535 3.52258C23.3972 3.54245 23.4342 3.57446 23.4602 3.6148C23.4861 3.6551 23.5 3.70201 23.5 3.74994C23.5 3.74999 23.5 3.75004 23.5 3.75008M23.5605 3.06744L23.5 3.75008M23.5 3.75008V20.2498V3.75008Z" fill="#FBFBFB" stroke="#FBFBFB"/>
</g>
<defs>
<clipPath id="clip0_8580_34695">
<rect width="24" height="24" fill="white"/>
</clipPath>
</defs>
</svg>
