<svg width="24" height="24" viewBox="0 0 24 24" fill="none" xmlns="http://www.w3.org/2000/svg">
<path d="M20.7805 5.47034C20.8503 5.54001 20.9057 5.62277 20.9436 5.71389C20.9814 5.80501 21.0008 5.90269 21.0008 6.00134C21.0008 6.09999 20.9814 6.19767 20.9436 6.28879C20.9057 6.37991 20.8503 6.46267 20.7805 6.53234L10.2805 17.0323C10.2108 17.1022 10.1281 17.1576 10.0369 17.1954C9.94582 17.2332 9.84813 17.2527 9.74948 17.2527C9.65083 17.2527 9.55315 17.2332 9.46203 17.1954C9.37091 17.1576 9.28815 17.1022 9.21848 17.0323L3.96848 11.7823C3.82765 11.6415 3.74854 11.4505 3.74854 11.2513C3.74854 11.0522 3.82765 10.8612 3.96848 10.7203C4.10931 10.5795 4.30032 10.5004 4.49948 10.5004C4.69865 10.5004 4.88965 10.5795 5.03048 10.7203L9.74948 15.4408L19.7185 5.47034C19.7882 5.4005 19.8709 5.34508 19.962 5.30727C20.0532 5.26946 20.1508 5.25 20.2495 5.25C20.3481 5.25 20.4458 5.26946 20.5369 5.30727C20.628 5.34508 20.7108 5.4005 20.7805 5.47034Z" fill="#5E60CE"/>
</svg>
