<svg width="24" height="24" viewBox="0 0 24 24" fill="none" xmlns="http://www.w3.org/2000/svg">
<path d="M7.11576 20.5C7.15845 20.6699 7.21274 20.8369 7.27836 21H1.5C0.4995 21 0 20.5005 0 19.5C0 18 1.5 13.5 7.5 13.5C7.59191 13.4999 7.6838 13.5009 7.77566 13.5031L7.50058 13.9164L7.5 13.9173L7.44484 14.0001M7.11576 20.5H7.63376C7.53933 20.1763 7.49394 19.8392 7.5 19.5M7.11576 20.5H1.5C1.07663 20.5 0.851369 20.3946 0.728366 20.2716C0.605363 20.1486 0.5 19.9234 0.5 19.5C0.5 18.8696 0.832122 17.485 1.87963 16.2629C2.90005 15.0724 4.619 14.0137 7.44484 14.0001M7.11576 20.5C7.03354 20.1728 6.99433 19.8351 7 19.4956M7.5 19.5C7.5 17.985 8.0655 16.437 9.135 15.144M7.5 19.5H7C7 19.4985 7 19.4971 7 19.4956M7.5 19.5L7.00008 19.4911C7.00005 19.4926 7.00003 19.4941 7 19.4956M9.135 15.144C9.37763 14.8504 9.64686 14.5695 9.94133 14.3052C9.74782 14.2525 9.55252 14.2068 9.35582 14.1682M9.135 15.144L8.7496 14.8255C8.74964 14.8254 8.74968 14.8254 8.74972 14.8253M9.135 15.144L8.74972 14.8253M9.35582 14.1682C9.5013 14.0266 9.65316 13.889 9.81123 13.7558C9.39957 13.6571 8.98109 13.5881 8.559 13.5495C8.33314 13.528 8.1067 13.5135 7.88 13.506V14.0063M9.35582 14.1682C9.13949 14.3789 8.93726 14.5984 8.74972 14.8253M9.35582 14.1682C9.07746 14.1137 8.7963 14.0733 8.51342 14.0474L8.51167 14.0473C8.30154 14.0273 8.09089 14.0136 7.88 14.0063M7.88 14.0063C7.75363 14.0019 7.62717 13.9998 7.50069 14L7.5 14C7.48157 14 7.46318 14 7.44484 14.0001M7.88 14.0063V15V15.0015V15.4958L7.65427 15.4984M7.44484 14.0001L7.10686 14.508M7.10686 14.508C7.19475 14.5047 7.28389 14.5026 7.37431 14.5015L7.37998 15V15H7.38L7.38226 15.0015L7.79624 15.277C7.74761 15.3501 7.70028 15.4239 7.65427 15.4984M7.10686 14.508L6.96376 14.723C6.89702 14.8232 6.83246 14.9247 6.7701 15.0274C4.64282 15.1869 3.38859 16.0404 2.64 16.914M7.10686 14.508C4.62581 14.5995 3.14243 15.5593 2.26033 16.5887M7 19.4956C7.0011 17.8579 7.61224 16.2005 8.74972 14.8253M7.65427 15.4984C6.91129 16.7014 6.51118 18.0867 6.49998 19.504L6.49607 20H6H1.5H1V19.5C1 18.9905 1.28875 17.7202 2.26033 16.5887M7.65427 15.4984L7.38569 15.5015C7.27701 15.5027 7.1706 15.5057 7.06643 15.5104C6.37967 16.7253 6.01108 18.0979 6 19.5H2H1.5V19H1.56936C1.69304 18.4604 2.00098 17.6581 2.64 16.914M2.26033 16.5887L2.64 16.914M2.26033 16.5887C2.26045 16.5885 2.26056 16.5884 2.26068 16.5882L2.64 16.914M10.4647 19.9953L10.4987 20H10.533H22.467H22.496L22.5248 19.9966C22.5405 19.9948 22.5561 19.9926 22.5715 19.99L22.5905 19.9868L22.6093 19.9821L22.6213 19.9791L23.003 19.8836L23 19.4902C22.9961 18.9793 22.707 17.7142 21.7392 16.5881C20.8116 15.5049 19.2163 14.5 16.5 14.5C13.7828 14.5 12.187 15.503 11.2604 16.5885C10.2936 17.7138 10.002 18.9775 10 19.4921L9.99848 19.893L10.3895 19.9816C10.4144 19.9873 10.4395 19.9918 10.4647 19.9953ZM23.5 19.5C23.5 19.7875 23.4296 19.9699 23.3496 20.0898C23.2676 20.2129 23.1546 20.3012 23.0264 20.3653C22.8962 20.4304 22.7601 20.4654 22.6522 20.4834C22.5994 20.4922 22.5566 20.4964 22.5288 20.4983C22.5151 20.4993 22.5053 20.4997 22.5002 20.4999L22.4971 20.5L22.4983 20.5L22.4991 20.5H22.4969H10.5031H10.5009L10.5017 20.5L10.5029 20.5L10.4998 20.4999C10.4975 20.4998 10.4942 20.4997 10.49 20.4995C10.4849 20.4992 10.4786 20.4989 10.4712 20.4983C10.4434 20.4964 10.4006 20.4922 10.3478 20.4834C10.2399 20.4654 10.1037 20.4304 9.97361 20.3653C9.84542 20.3012 9.73245 20.2129 9.6504 20.0898C9.57044 19.9699 9.5 19.7875 9.5 19.5C9.5 18.8696 9.83212 17.485 10.8796 16.2629C11.9067 15.0647 13.6413 14 16.5 14C19.3587 14 21.0933 15.0647 22.1204 16.2629C23.1679 17.485 23.5 18.8696 23.5 19.5ZM16.5 11C17.4283 11 18.3185 10.6313 18.9749 9.97487C19.6313 9.3185 20 8.42826 20 7.5C20 6.57174 19.6313 5.6815 18.9749 5.02513C18.3185 4.36875 17.4283 4 16.5 4C15.5717 4 14.6815 4.36875 14.0251 5.02513C13.3688 5.6815 13 6.57174 13 7.5C13 8.42826 13.3688 9.3185 14.0251 9.97487C14.6815 10.6313 15.5717 11 16.5 11ZM20.5 7.5C20.5 8.02529 20.3965 8.54543 20.1955 9.03073C19.9945 9.51604 19.6999 9.95699 19.3284 10.3284C18.957 10.6999 18.516 10.9945 18.0307 11.1955C17.5454 11.3965 17.0253 11.5 16.5 11.5C15.9747 11.5 15.4546 11.3965 14.9693 11.1955C14.484 10.9945 14.043 10.6999 13.6716 10.3284C13.3001 9.95699 13.0055 9.51604 12.8045 9.03073C12.6035 8.54543 12.5 8.02529 12.5 7.5C12.5 6.43913 12.9214 5.42172 13.6716 4.67157C14.4217 3.92143 15.4391 3.5 16.5 3.5C17.5609 3.5 18.5783 3.92143 19.3284 4.67157C20.0786 5.42172 20.5 6.43913 20.5 7.5ZM2.75 8.25C2.75 7.18913 3.17143 6.17172 3.92157 5.42157C4.67172 4.67143 5.68913 4.25 6.75 4.25C7.81087 4.25 8.82828 4.67143 9.57843 5.42157C10.3286 6.17172 10.75 7.18913 10.75 8.25C10.75 9.31087 10.3286 10.3283 9.57843 11.0784C8.82828 11.8286 7.81087 12.25 6.75 12.25C5.68913 12.25 4.67172 11.8286 3.92157 11.0784C3.17143 10.3283 2.75 9.31087 2.75 8.25ZM6.75 4.75C5.82174 4.75 4.9315 5.11875 4.27513 5.77513C3.61875 6.4315 3.25 7.32174 3.25 8.25C3.25 9.17826 3.61875 10.0685 4.27513 10.7249C4.9315 11.3813 5.82174 11.75 6.75 11.75C7.67826 11.75 8.5685 11.3813 9.22487 10.7249C9.88125 10.0685 10.25 9.17826 10.25 8.25C10.25 7.32174 9.88125 6.4315 9.22487 5.77513C8.5685 5.11875 7.67826 4.75 6.75 4.75Z" stroke="#FBFBFB"/>
</svg>
