<svg width="16" height="16" fill="none" xmlns="http://www.w3.org/2000/svg"><path d="M11.27 0H4.72c-.87 0-1.45.19-1.93.38s-.96.48-1.45.96c-.48.49-.67.87-.96 1.45C.19 3.27.09 3.85 0 4.72v6.55c0 .87.19 1.45.38 1.93s.48.96.96 1.45c.49.48.87.67 1.45.96.48.19 1.06.29 1.93.39h6.55c.87 0 1.45-.2 1.93-.39s.96-.48 1.45-.96c.48-.49.67-.87.96-1.45.19-.48.29-1.06.39-1.93V4.72c0-.87-.2-1.45-.39-1.93s-.48-.96-.96-1.45c-.49-.48-.87-.67-1.45-.96-.48-.19-1.06-.29-1.93-.38zM4.72 1.44h6.55c.77 0 1.16.19 1.45.29.38.19.67.29.96.58.29.29.48.58.58.96.1.29.19.68.29 1.45v6.55c0 .77-.19 1.16-.29 1.45-.19.38-.29.67-.58.96-.29.29-.58.48-.96.58-.29.1-.68.19-1.45.29H4.72c-.77 0-1.16-.19-1.45-.29-.38-.19-.67-.29-.96-.58-.29-.29-.48-.58-.58-.96-.1-.29-.19-.68-.29-1.45V4.72c0-.77.19-1.16.29-1.45.19-.38.29-.67.58-.96.29-.29.58-.48.96-.58.29-.1.68-.19 1.45-.29zm8.48 2.31a.965.965 0 11-.96-.96c.53 0 .96.43.96.96zm-5.2.1C5.68 3.85 3.85 5.68 3.85 8c0 2.31 1.83 4.14 4.15 4.14A4.11 4.11 0 0012.14 8c0-2.32-1.83-4.15-4.14-4.15zm0 6.84c-1.45 0-2.7-1.15-2.7-2.69 0-1.45 1.15-2.7 2.7-2.7 1.44 0 2.69 1.15 2.69 2.7 0 1.44-1.25 2.69-2.69 2.69z" fill="#5E60CE" fill-rule="evenodd"/></svg>