<svg width="64" height="64" fill="none" xmlns="http://www.w3.org/2000/svg"><path d="M14.93 13.49c-.85.62-1.36 1.47-1.05 1.85.31.43 1.24.23 2.09-.35.85-.61 1.35-1.46 1.04-1.85-.27-.46-1.2-.27-2.08.35zm32.27-1.97l-.31-.43-1.12.31.43.62 1-.5zm.7.42l.54-.81s-.81-1.19-.93-1.81c-.12-.62.35-1.47.39-1.47l-1.2-.89s-.54 1.43-.04 2.86 1.24 2.12 1.24 2.12zm-1.51-5.17L44.04 5l-.12.73 2.24 1.93.23-.89zm-28.53.04c-1.08-1.51-4.52-.93-7.72 1.35-3.17 2.24-4.9 5.33-3.82 6.83 1.08 1.51 4.51.93 7.72-1.35 3.2-2.27 4.9-5.32 3.82-6.83zm-9.5 7.14c-.54-.77-.11-2.04.97-3.28.5-.58 1.77-.69 2.39-.46-.08-.74.85-2.05 1.51-2.32 1.58-.62 2.97-.62 3.51.15.77 1.09-.46 3.33-2.78 4.95s-4.83 2.08-5.6.96zm38.42-3.05l-.24-.38-1.39-.04.39.73 1.24-.31zm.92 1.24l-.31-.31-.96.42.85.7.42-.81zm1.62 2.39c.08-.08.66-.85 1.66-1.78 1.01-.92 2.44-1.85 2.44-1.85s-.89-.89-1.74-1.62c-.85-.73-1.82-1.16-1.82-1.16s-.42 1.31-.84 2.13c-.39.81-1.63 2.89-1.63 2.89.43.19 1.28.35 1.93 1.39zm-2.85-4.21l-.08-.38-1.62-.54.31.81 1.39.11zm3.2-2.58s.93.15 2.24 1.31c1.31 1.16 1.78 1.85 1.78 1.85s.34.08.65-.15c.31-.23.2-.7.2-.7s-.58-.81-1.97-2.01c-.85-.54-1.62-1-2.44-1.23-.15.08-.23-.04-.42.39-.19.42-.04.54-.04.54zm3.28 5.86c-.65.04-2-.5-2-.5l-.7.7s.85.58 2.36.73c1.5.16 2.78-.69 2.78-.69l-1.16-.97c.07.04-.62.7-1.28.73zm-8.91-7.33l.07 1 2.05 1.43-.08-.73-2.04-1.7zm2.27 3.32l-.11-.62-1.97-1.12.42 1.31 1.66.43zm1.89 4.32c-.92-.61-1.89-.73-2.16-.31-.27.43.23 1.28 1.12 1.9.93.61 1.89.73 2.16.3.31-.46-.19-1.31-1.12-1.89zm1.24.74l.93.65.15-1-.39-.23-.69.58zm2.78.19l.42 1.35.85.12-.88-1.47h-.39zm-6.49 4.28c.31-.46 1.74-2.47 2.05-2.89-.77-.27-1.24-.62-1.78-1.2-.38.5-2.08 2.71-2.43 3.17-4.01-1.85-7.95-4.71-11.19-9.11-3.71 4.36-7.3 7.8-12.2 9.65l-3.17-4.17c-.5.66-.96.89-1.47 1.08l2.78 3.71c-.73.23-1.31.34-2.12.5-.5 6.99 1.35 11.58 3.2 15.52-1.04 1.81-1.73 3.63-1.77 5.25-.04 1.2.35 2.12.92 2.82-1.15.15-2.27.5-3.16 1.27-.39.31-.66.73-.81 1.2-.54 0-1.08.11-1.58.31-1.82.69-2.75 2.51-2.44 4.4.31 2.08 2.05 3.59 3.83 4.59 4.47 2.51 9.88 3.28 14.94 3.36 5.4.08 11.27-.42 15.98-3.4.31-.19.04-.69-.27-.5-3.48 2.2-7.61 3.01-11.66 3.24-4.25.27-8.61.04-12.74-.96-2.05-.5-4.09-1.2-5.91-2.24-1.58-.89-3.2-2.2-3.51-4.09-.35-1.82.66-3.55 2.51-4.02.27-.07.58-.11.85-.11 0 .19 0 .34.04.54.23 1 1.04 2.04 1.93 2.51.73.38 1.7.38 2.35-.16.66-.54.62-1.39.08-2-.7-.78-1.89-1.2-2.9-1.36-.27-.03-.54-.07-.81-.11.08-.19.2-.35.35-.54.89-.97 2.16-1.32 3.51-1.43 1.28 1.23 3.05 1.66 3.63 1.62l-2.66 3.75 1.43 1.23 4.9-6.37c1.89 1.74 3.94 3.13 6.14 4.52 2.01-1.31 4.01-2.63 5.83-4.33l5.25 6.1c.69-.31 1-.69 1.35-1.19l-5.29-6.26c.23-.27.5-.54.73-.85-.11-3.01.97-6.6 4.91-6.52 1.93-4.71 3.97-9.5 3.24-15.75-1.08-.16-1.97-.43-2.86-.78zM16.51 46.73c.69.19 2.35.77 2.2 1.77-.08.54-.73.78-1.2.78-.62 0-1.12-.35-1.54-.78-.54-.57-.97-1.27-.93-2 .5 0 1.01.11 1.47.23zm9.77-9.54h-.47c-.38 0-.69-.5-.69-.88 0-.51.35-.89.81-.89.66 0 1 .34 1 1 .04.27-.34.77-.65.77zm18.33-2.43c-2.08.15-3.62 1.82-4.47 3.63l.03-6.87h-5.83v3.86h2.75v3.09h2.97c-.54 1.23-.77 2.55-.73 3.66-2.4 2.59-4.44 3.87-7.03 5.6-2.05-1.35-3.71-2.51-5.41-4.05l.12-.12 5.64-8.14h.81v-1.39c.07-.16.19-.31.27-.47-.08-.15-.16-.31-.27-.5v-1.54h-.7c-.08-.27-.15-.54-.15-.81v-.89c0-1.31.46-2.51.69-3.71.08-.34.35-1.23.5-1.66.04-.15.39-.89.54-1.27v3.01h3.87v-3.86h-3.13c0-.19-.19-.35-.39-.35-.19 0-.35.16-.38.35v.5l-.04-.04-7.3 11.74-.19-.12 7.37-11.77-.04-.12-.69.7-3.17 2.93c-.69.46-1.12.81-1.54 1.04v-.3h-3.86v.96h-.12c-1.31 1.81-3.24 4.17-4.79 6.6-1.73-3.74-3.16-7.26-2.89-13.86 6.37-1.5 11.08-4.86 15.29-10.15 4.21 5.79 10.04 8.72 15.25 10.27.31 5.94-1.16 9.8-2.98 14.05zm8.38-19.92l.77 1.51 1.36.11-1.51-1.66-.62.04zm-2.39.69l.65.27.04-1.19-.46-.2-.23 1.12zm.96-.88v1.27l.78.19-.35-1.35-.43-.11zm2.32.07l1.85 1.66.97-.15-2.13-1.62-.69.11zM24.81 26.19h3.86v-3.86h-3.86v3.86zM44.65 44.8l-.85-1.08.7-.66-1.24-1.54-.77.73.58.81-.89.7-.65-.7-.74.62 3.4 4.01.69-.58-.61-.73.88-.77.74.73.69-.61-1.19-1.4-.74.47zM34.34 21.6h3.87v-3.86h-3.87v3.86zm21.28-7.57l-.81.46 2.47 1.74.65-.27-2.31-1.93zM34.34 30.78h3.87v-3.86h-3.87v3.86zm-9.53-9.18h3.86v-3.86h-3.86v3.86z" fill="#FBFBFB" fill-rule="evenodd"/></svg>