<svg width="16.000000" height="16.000000" viewBox="0 0 16 16" fill="none" xmlns="http://www.w3.org/2000/svg" xmlns:xlink="http://www.w3.org/1999/xlink">
	<desc>
			Created with Pixso.
	</desc>
	<defs/>
	<path id="instagram" d="M11.27 0L4.72 0C3.85 0 3.27 0.19 2.79 0.38C2.31 0.57 1.83 0.86 1.34 1.34C0.86 1.83 0.67 2.21 0.38 2.79C0.19 3.27 0.09 3.85 0 4.72L0 11.27C0 12.14 0.19 12.72 0.38 13.2C0.57 13.68 0.86 14.16 1.34 14.65C1.83 15.13 2.21 15.32 2.79 15.61C3.27 15.8 3.85 15.9 4.72 16L11.27 16C12.14 16 12.72 15.8 13.2 15.61C13.68 15.42 14.16 15.13 14.65 14.65C15.13 14.16 15.32 13.78 15.61 13.2C15.8 12.72 15.9 12.14 16 11.27L16 4.72C16 3.85 15.8 3.27 15.61 2.79C15.42 2.31 15.13 1.83 14.65 1.34C14.16 0.86 13.78 0.67 13.2 0.38C12.72 0.19 12.14 0.09 11.27 0ZM4.72 1.44L11.27 1.44C12.04 1.44 12.43 1.63 12.72 1.73C13.1 1.92 13.39 2.02 13.68 2.31C13.97 2.6 14.16 2.89 14.26 3.27C14.36 3.56 14.45 3.95 14.55 4.72L14.55 11.27C14.55 12.04 14.36 12.43 14.26 12.72C14.07 13.1 13.97 13.39 13.68 13.68C13.39 13.97 13.1 14.16 12.72 14.26C12.43 14.36 12.04 14.45 11.27 14.55L4.72 14.55C3.95 14.55 3.56 14.36 3.27 14.26C2.89 14.07 2.6 13.97 2.31 13.68C2.02 13.39 1.83 13.1 1.73 12.72C1.63 12.43 1.54 12.04 1.44 11.27L1.44 4.72C1.44 3.95 1.63 3.56 1.73 3.27C1.92 2.89 2.02 2.6 2.31 2.31C2.6 2.02 2.89 1.83 3.27 1.73C3.56 1.63 3.95 1.54 4.72 1.44ZM13.2 3.75C13.2 4.29 12.77 4.72 12.24 4.72C11.7 4.72 11.27 4.29 11.27 3.75C11.27 3.22 11.7 2.79 12.24 2.79C12.77 2.79 13.2 3.22 13.2 3.75ZM8 3.85C5.68 3.85 3.85 5.68 3.85 8C3.85 10.31 5.68 12.14 8 12.14C10.31 12.14 12.14 10.31 12.14 8C12.14 5.68 10.31 3.85 8 3.85ZM8 10.69C6.55 10.69 5.3 9.54 5.3 8C5.3 6.55 6.45 5.3 8 5.3C9.44 5.3 10.69 6.45 10.69 8C10.69 9.44 9.44 10.69 8 10.69Z" fill="#5E60CE" fill-opacity="1.000000" fill-rule="evenodd"/>
</svg>
