<svg width="17.600006" height="11.200195" viewBox="0 0 17.6 11.2002" fill="none" xmlns="http://www.w3.org/2000/svg" xmlns:xlink="http://www.w3.org/1999/xlink">
	<desc>
			Created with Pixso.
	</desc>
	<defs/>
	<path id="Vector" d="M9.58 11.2C3.57 11.2 0.14 6.99 0 0L3.01 0C3.11 5.13 5.33 7.3 7.09 7.75L7.09 0L9.92 0L9.92 4.42C11.66 4.23 13.48 2.21 14.1 0L16.94 0C16.7 1.15 16.24 2.24 15.58 3.2C14.91 4.16 14.06 4.97 13.08 5.58C14.18 6.14 15.15 6.92 15.93 7.89C16.71 8.86 17.27 9.99 17.6 11.2L14.47 11.2C14.18 10.14 13.6 9.21 12.79 8.49C11.98 7.78 10.98 7.33 9.92 7.19L9.92 11.2L9.58 11.2Z" fill="#5E60CE" fill-opacity="1.000000" fill-rule="nonzero"/>
</svg>
